<svg xmlns="http://www.w3.org/2000/svg" viewBox="0 0 288 208" role="img" aria-labelledby="title desc">
<title id="title">Showings and Feedback</title><desc id="desc">Abstract line illustration representing showings and feedback.</desc>
<defs><linearGradient id="g" x1="0" y1="0" x2="1" y2="1"><stop offset="0" stop-color="#0b2942"/><stop offset="1" stop-color="#153e5e"/></linearGradient><radialGradient id="r" cx="75%" cy="15%" r="85%"><stop offset="0" stop-color="#c89b4b" stop-opacity=".32"/><stop offset="1" stop-color="#c89b4b" stop-opacity="0"/></radialGradient></defs>
<rect width="288" height="208" rx="24" fill="url(#g)"/><rect width="288" height="208" rx="24" fill="url(#r)"/>
<path d="M49 178h183M70 178V94l72-55 72 55v84M101 178v-48h82v48" fill="none" stroke="#f6f2e9" stroke-width="4" stroke-linecap="round" stroke-linejoin="round" opacity=".92"/>
<path d="M91 105h20v20H91zM173 105h20v20h-20z M246 75c17 10 27 28 27 48s-10 38-27 48M255 91c9 8 14 20 14 32s-5 24-14 32" fill="none" stroke="#c89b4b" stroke-width="4" stroke-linecap="round" stroke-linejoin="round"/>
<circle cx="250" cy="31" r="4" fill="#c89b4b"/><circle cx="267" cy="31" r="2" fill="#f6f2e9" opacity=".7"/>
</svg>